# xmcd
#
# Track frame offsets: 
#        150
#        56706
#        106159
#        135134
#        159192
#        165489
#        186167
#        223773
#        242026
#
# Disc length: 3505 seconds
#
# Revision: 0
# Processed by: cddbd v1.5.1PL2 Copyright (c) Steve Scherf et al.
# Submitted via: ExactAudioCopy v0.95a4
#
DISCID=6e0daf09
DTITLE=Stevie Ray Vaughan - Live in Carnegie Hall - 10-4-84
DYEAR=1984
DGENRE=Blues
TTITLE0=Voodoo Child (Slight Return)
TTITLE1=Tin Pan Alley
TTITLE2=The Sky is Crying
TTITLE3=Couldn't Stand the Weather
TTITLE4=Introducing Jimmy Vaughan
TTITLE5=Jam
TTITLE6=Texas Flood
TTITLE7=Mary Had a Little Lamb
TTITLE8=Say You Will
EXTD=
EXTT0=
EXTT1=
EXTT2=
EXTT3=
EXTT4=
EXTT5=
EXTT6=
EXTT7=
EXTT8=
PLAYORDER=
